# Blender v2.91.0 OBJ File: 'bake.blend'
# www.blender.org
mtllib bake.mtl
o dobj_dmesh
v 1.000000 0.656124 -0.006330
v 0.923880 0.906407 -0.295821
v 0.707107 1.118586 -0.541240
v 0.382683 1.260360 -0.705224
v -0.000000 1.310144 -0.762808
v -0.382683 1.260360 -0.705224
v -0.707107 1.118586 -0.541240
v -0.923880 0.906407 -0.295822
v -1.000000 0.656124 -0.006330
v -0.923880 0.405842 0.283161
v -0.707107 0.193663 0.528580
v -0.382684 0.051889 0.692564
v 0.000000 0.002105 0.750148
v 0.382684 0.051889 0.692564
v 0.707107 0.193662 0.528580
v 0.923880 0.405842 0.283161
v 1.000000 0.681845 0.015907
v 0.923880 0.932127 -0.273585
v 0.707107 1.144306 -0.519004
v 0.382683 1.286080 -0.682987
v -0.000000 1.335864 -0.740571
v -0.382683 1.286080 -0.682988
v -0.707107 1.144306 -0.519004
v -0.923880 0.932127 -0.273585
v -1.000000 0.681844 0.015907
v -0.923880 0.431562 0.305398
v -0.707107 0.219383 0.550817
v -0.382684 0.077609 0.714801
v 0.000000 0.027825 0.772384
v 0.382684 0.077609 0.714801
v 0.707107 0.219383 0.550817
v 0.923880 0.431562 0.305398
v 0.980785 0.797235 -0.142225
v 0.831470 1.032996 -0.414920
v 0.555570 1.213439 -0.623631
v 0.195090 1.311095 -0.736585
v -0.195090 1.311095 -0.736585
v -0.555570 1.213439 -0.623631
v -0.831470 1.032996 -0.414920
v -0.980785 0.797235 -0.142225
v -0.980785 0.542049 0.152938
v -0.831470 0.306288 0.425633
v -0.555570 0.125844 0.634345
v -0.195090 0.028189 0.747299
v 0.195090 0.028189 0.747299
v 0.555570 0.125844 0.634345
v 0.831470 0.306288 0.425633
v 0.980785 0.542049 0.152938
v 0.980785 0.797399 -0.142083
v 0.831470 1.033160 -0.414778
v 0.555570 1.213603 -0.623489
v 0.195090 1.311259 -0.736443
v -0.195090 1.311259 -0.736443
v -0.555570 1.213603 -0.623489
v -0.831470 1.033160 -0.414778
v -0.980785 0.797399 -0.142083
v -0.980785 0.542213 0.153080
v -0.831470 0.306452 0.425775
v -0.555570 0.126009 0.634487
v -0.195090 0.028353 0.747441
v 0.195090 0.028353 0.747441
v 0.555570 0.126009 0.634487
v 0.831470 0.306452 0.425775
v 0.980785 0.542213 0.153080
v 0.995185 0.730408 -0.071677
v 0.956940 0.856155 -0.217123
v 0.881921 0.974606 -0.354131
v 0.773010 1.081209 -0.477434
v 0.634393 1.171867 -0.582295
v 0.471397 1.243097 -0.664683
v 0.290285 1.292161 -0.721434
v 0.098017 1.317174 -0.750364
v -0.098017 1.317174 -0.750364
v -0.290285 1.292161 -0.721433
v -0.471397 1.243097 -0.664683
v -0.634393 1.171867 -0.582295
v -0.773010 1.081209 -0.477434
v -0.881921 0.974606 -0.354131
v -0.956940 0.856155 -0.217124
v -0.995185 0.730408 -0.071677
v -0.995185 0.602198 0.076618
v -0.956940 0.476451 0.222064
v -0.881921 0.358001 0.359071
v -0.773011 0.251398 0.482375
v -0.634393 0.160739 0.587235
v -0.471397 0.089509 0.669624
v -0.290285 0.040446 0.726374
v -0.098017 0.015433 0.755305
v 0.098017 0.015433 0.755305
v 0.290285 0.040446 0.726374
v 0.471397 0.089509 0.669624
v 0.634393 0.160739 0.587235
v 0.773011 0.251398 0.482375
v 0.881921 0.358001 0.359071
v 0.956940 0.476451 0.222064
v 0.995185 0.602198 0.076618
v 0.995185 0.736884 -0.066079
v 0.956940 0.862631 -0.211525
v 0.881921 0.981082 -0.348532
v 0.773010 1.087685 -0.471835
v 0.634393 1.178343 -0.576696
v 0.471397 1.249573 -0.659084
v 0.290285 1.298637 -0.715835
v 0.098017 1.323650 -0.744766
v -0.098017 1.323650 -0.744766
v -0.290285 1.298637 -0.715835
v -0.471397 1.249573 -0.659084
v -0.634393 1.178343 -0.576696
v -0.773010 1.087685 -0.471835
v -0.881921 0.981082 -0.348532
v -0.956940 0.862631 -0.211525
v -0.995185 0.736884 -0.066079
v -0.995185 0.608674 0.082217
v -0.956940 0.482927 0.227663
v -0.881921 0.364477 0.364670
v -0.773011 0.257874 0.487973
v -0.634393 0.167215 0.592834
v -0.471397 0.095985 0.675223
v -0.290285 0.046921 0.731973
v -0.098017 0.021909 0.760904
v 0.098017 0.021909 0.760904
v 0.290285 0.046921 0.731973
v 0.471397 0.095985 0.675223
v 0.634393 0.167215 0.592834
v 0.773011 0.257874 0.487973
v 0.881921 0.364477 0.364670
v 0.956940 0.482927 0.227663
v 0.995185 0.608674 0.082217
v 0.647500 1.041079 -0.028056
v 0.268203 1.289146 -0.314986
v -0.268203 1.289146 -0.314986
v -0.647500 1.041079 -0.028056
v -0.647500 0.690258 0.377723
v -0.268203 0.442191 0.664653
v 0.268203 0.442191 0.664653
v 0.647500 0.690258 0.377723
v 0.530000 0.926943 0.227809
v 0.374767 1.172048 -0.055693
v -0.000000 1.273574 -0.173124
v -0.374767 1.172048 -0.055693
v -0.530000 0.926943 0.227809
v -0.374767 0.681839 0.511311
v 0.000000 0.580313 0.628742
v 0.374766 0.681839 0.511312
v 0.400000 0.373236 -0.469926
v 0.165685 0.526482 -0.647180
v -0.165685 0.526482 -0.647180
v -0.400000 0.373236 -0.469926
v -0.400000 0.156513 -0.219252
v -0.165685 0.003266 -0.041998
v 0.165686 0.003266 -0.041998
v 0.400000 0.156513 -0.219252
v -0.000000 0.004041 -0.570095
vt 0.244494 0.794979
vt 0.248251 0.822379
vt 0.250641 0.822379
vt 0.253987 0.794979
vt 0.250641 0.767710
vt 0.248251 0.767710
vt 0.244494 0.902742
vt 0.248251 0.928056
vt 0.250641 0.928056
vt 0.253987 0.902742
vt 0.250641 0.876521
vt 0.248251 0.876521
vt 0.271111 0.963579
vt 0.267354 0.944204
vt 0.264964 0.944204
vt 0.261618 0.963579
vt 0.244494 0.996185
vt 0.253987 0.996185
vt 0.250641 0.975004
vt 0.248251 0.975004
vt 0.271111 0.876076
vt 0.267354 0.850761
vt 0.264964 0.850761
vt 0.261618 0.876076
vt 0.264964 0.900241
vt 0.267354 0.900241
vt 0.271111 0.770398
vt 0.267354 0.742998
vt 0.264964 0.742998
vt 0.261618 0.770398
vt 0.264964 0.797667
vt 0.267354 0.797667
vt 0.271111 0.662636
vt 0.267354 0.637321
vt 0.264964 0.637321
vt 0.261618 0.662636
vt 0.264964 0.688856
vt 0.267354 0.688856
vt 0.575836 0.714662
vt 0.587047 0.698419
vt 0.585374 0.696712
vt 0.569193 0.707881
vt 0.271111 0.569193
vt 0.261618 0.569193
vt 0.264964 0.590373
vt 0.267354 0.590373
vt 0.638340 0.653424
vt 0.653793 0.633024
vt 0.652120 0.631317
vt 0.631696 0.646643
vt 0.616777 0.665945
vt 0.618450 0.667652
vt 0.713826 0.579467
vt 0.730768 0.557608
vt 0.729096 0.555900
vt 0.707182 0.572686
vt 0.690046 0.594159
vt 0.691718 0.595867
vt 0.790801 0.504050
vt 0.806254 0.483651
vt 0.804581 0.481943
vt 0.784157 0.497269
vt 0.767769 0.518009
vt 0.769442 0.519717
vt 0.857547 0.438656
vt 0.868757 0.422413
vt 0.867085 0.420705
vt 0.850904 0.431875
vt 0.838116 0.449088
vt 0.839788 0.450795
vt 0.744356 0.351928
vt 0.719742 0.339609
vt 0.718669 0.340610
vt 0.740095 0.355903
vt 0.765256 0.366304
vt 0.766329 0.365303
vt 0.659196 0.285249
vt 0.639616 0.266088
vt 0.638544 0.267089
vt 0.654936 0.289224
vt 0.675883 0.307109
vt 0.676956 0.306108
vt 0.598572 0.195678
vt 0.586751 0.172831
vt 0.585678 0.173832
vt 0.594312 0.199653
vt 0.608085 0.222087
vt 0.609158 0.221086
vt 0.244494 0.601798
vt 0.248251 0.621173
vt 0.250641 0.621173
vt 0.253987 0.601798
vt 0.250641 0.584416
vt 0.248251 0.584416
vt 0.244494 0.689301
vt 0.248251 0.714616
vt 0.250641 0.714616
vt 0.253987 0.689301
vt 0.250641 0.665137
vt 0.248251 0.665137
vt 0.249483 0.849648
vt 0.249544 0.849648
vt 0.249483 0.952221
vt 0.249544 0.952221
vt 0.266122 0.923023
vt 0.266061 0.923023
vt 0.266122 0.824541
vt 0.266061 0.824541
vt 0.266122 0.715730
vt 0.266061 0.715730
vt 0.266122 0.613156
vt 0.266061 0.613156
vt 0.601314 0.682716
vt 0.601271 0.682673
vt 0.671660 0.613794
vt 0.671618 0.613751
vt 0.749384 0.537644
vt 0.749341 0.537601
vt 0.822653 0.465859
vt 0.822610 0.465816
vt 0.880311 0.409368
vt 0.880269 0.409324
vt 0.892048 0.399594
vt 0.890375 0.397887
vt 0.697214 0.324277
vt 0.697186 0.324302
vt 0.622894 0.244621
vt 0.622867 0.244646
vt 0.578296 0.148577
vt 0.578268 0.148602
vt 0.249483 0.569193
vt 0.249544 0.569193
vt 0.249483 0.642354
vt 0.249544 0.642354
vt 0.249483 0.740837
vt 0.249544 0.740837
vt 0.241720 0.006501
vt 0.330236 0.092869
vt 0.350531 0.011847
vt 0.323657 0.006501
vt 0.296389 0.003815
vt 0.268989 0.003815
vt 0.449014 0.058425
vt 0.426231 0.043203
vt 0.402066 0.030286
vt 0.376752 0.019801
vt 0.139146 0.043203
vt 0.116364 0.058425
vt 0.095183 0.075808
vt 0.075808 0.095183
vt 0.058425 0.116364
vt 0.182087 0.114845
vt 0.214846 0.011847
vt 0.188626 0.019801
vt 0.163311 0.030286
vt 0.011847 0.214846
vt 0.006501 0.241720
vt 0.003815 0.268988
vt 0.003815 0.296389
vt 0.006501 0.323657
vt 0.092869 0.235141
vt 0.043203 0.139146
vt 0.030286 0.163311
vt 0.019801 0.188626
vt 0.043203 0.426231
vt 0.058425 0.449014
vt 0.075808 0.470194
vt 0.095183 0.489569
vt 0.116364 0.506952
vt 0.114845 0.383290
vt 0.011847 0.350531
vt 0.019801 0.376751
vt 0.030286 0.402066
vt 0.214846 0.553531
vt 0.241720 0.558876
vt 0.268988 0.561562
vt 0.296389 0.561562
vt 0.323657 0.558876
vt 0.235141 0.472508
vt 0.139146 0.522175
vt 0.163311 0.535091
vt 0.188626 0.545577
vt 0.426231 0.522175
vt 0.449014 0.506952
vt 0.470194 0.489569
vt 0.489569 0.470194
vt 0.506952 0.449014
vt 0.383290 0.450532
vt 0.350531 0.553531
vt 0.376751 0.545577
vt 0.402066 0.535091
vt 0.553531 0.350531
vt 0.558876 0.323657
vt 0.561562 0.296389
vt 0.561562 0.268988
vt 0.558876 0.241720
vt 0.472508 0.330236
vt 0.522175 0.426231
vt 0.535091 0.402066
vt 0.545577 0.376752
vt 0.522175 0.139146
vt 0.506952 0.116364
vt 0.489569 0.095183
vt 0.470194 0.075808
vt 0.450532 0.182087
vt 0.553531 0.214846
vt 0.545577 0.188626
vt 0.535091 0.163311
vt 0.260975 0.136309
vt 0.163829 0.194536
vt 0.136309 0.304402
vt 0.194536 0.401548
vt 0.304402 0.429068
vt 0.401548 0.370841
vt 0.429068 0.260975
vt 0.370841 0.163829
vt 0.100087 0.849404
vt 0.100087 0.756993
vt 0.415518 0.808384
vt 0.415518 0.715973
vt 0.787754 0.709201
vt 0.853763 0.644529
vt 0.841085 0.385564
vt 0.852266 0.168382
vt 0.789940 0.375417
vt 0.814928 0.382202
vt 0.863671 0.389658
vt 0.886956 0.390256
vt 0.910684 0.387383
vt 0.934659 0.381036
vt 0.934659 0.180984
vt 0.789148 0.100732
vt 0.571713 0.096852
vt 0.782280 0.017664
vt 0.582708 0.003815
vt 0.574717 0.027294
vt 0.570208 0.050766
vt 0.569193 0.074037
vt 0.573256 0.123179
vt 0.003815 0.808679
vt 0.100087 0.917958
vt 0.511790 0.756699
vt 0.415518 0.647419
vt 0.892048 0.741796
vt 0.928381 0.034096
vn 0.9988 0.0321 -0.0371
vn 0.9988 -0.0321 0.0371
vn 0.9040 0.2796 -0.3234
vn 0.9415 0.2203 -0.2548
vn 0.6716 0.4846 -0.5605
vn 0.7409 0.4392 -0.5080
vn 0.3369 0.6158 -0.7123
vn 0.4276 0.5912 -0.6838
vn -0.0491 0.6532 -0.7556
vn 0.0491 0.6532 -0.7556
vn -0.4276 0.5912 -0.6838
vn -0.3369 0.6158 -0.7123
vn -0.7409 0.4392 -0.5080
vn -0.6716 0.4846 -0.5605
vn -0.9415 0.2203 -0.2549
vn -0.9040 0.2796 -0.3234
vn -0.9988 -0.0321 0.0371
vn -0.9988 0.0321 -0.0371
vn -0.9040 -0.2796 0.3234
vn -0.9415 -0.2203 0.2549
vn -0.6716 -0.4846 0.5605
vn -0.7410 -0.4392 0.5080
vn -0.3369 -0.6158 0.7123
vn -0.4276 -0.5912 0.6838
vn 0.0491 -0.6532 0.7556
vn -0.0491 -0.6532 0.7556
vn 0.4276 -0.5912 0.6838
vn 0.3369 -0.6158 0.7123
vn 0.7410 -0.4392 0.5080
vn 0.6716 -0.4846 0.5605
vn 0.9415 -0.2203 0.2548
vn 0.9040 -0.2796 0.3234
vn 0.9892 0.0960 -0.1110
vn 0.9700 0.1589 -0.1838
vn 0.8577 0.3362 -0.3889
vn 0.8032 0.3896 -0.4506
vn 0.5957 0.5253 -0.6076
vn 0.5141 0.5610 -0.6489
vn 0.2430 0.6344 -0.7338
vn 0.1467 0.6469 -0.7483
vn -0.1467 0.6469 -0.7483
vn -0.2430 0.6344 -0.7338
vn -0.5141 0.5610 -0.6489
vn -0.5957 0.5253 -0.6076
vn -0.8032 0.3896 -0.4506
vn -0.8577 0.3362 -0.3889
vn -0.9700 0.1589 -0.1838
vn -0.9892 0.0960 -0.1110
vn -0.9892 -0.0960 0.1110
vn -0.9700 -0.1589 0.1838
vn -0.8577 -0.3362 0.3889
vn -0.8032 -0.3896 0.4506
vn -0.5957 -0.5253 0.6076
vn -0.5141 -0.5610 0.6489
vn -0.2430 -0.6344 0.7338
vn -0.1467 -0.6469 0.7483
vn 0.1467 -0.6469 0.7483
vn 0.2430 -0.6344 0.7338
vn 0.5141 -0.5610 0.6489
vn 0.5957 -0.5253 0.6076
vn 0.8032 -0.3896 0.4506
vn 0.8577 -0.3362 0.3889
vn 0.9700 -0.1589 0.1838
vn 0.9892 -0.0960 0.1110
vn 0.6257 0.5012 0.5978
vn 0.5304 0.3508 0.7718
vn 0.5304 0.8144 0.2355
vn 0.6257 0.6640 0.4095
vn 0.1245 0.9918 0.0303
vn 0.3544 0.9295 0.1024
vn -0.3544 0.9295 0.1024
vn -0.1245 0.9918 0.0303
vn -0.6257 0.6640 0.4095
vn -0.5304 0.8144 0.2355
vn -0.5304 0.3508 0.7718
vn -0.6257 0.5012 0.5978
vn -0.1245 0.1733 0.9770
vn -0.3544 0.2356 0.9049
vn 0.3544 0.2356 0.9049
vn 0.1245 0.1733 0.9770
vn 0.3308 0.7959 0.5070
vn 0.4013 0.8853 0.2349
vn 0.1370 0.9227 0.3604
vn -0.0000 0.9940 0.1091
vn -0.1370 0.9227 0.3604
vn -0.4013 0.8853 0.2349
vn -0.3308 0.7959 0.5070
vn -0.5676 0.6228 0.5385
vn -0.3308 0.6167 0.7143
vn -0.4013 0.3603 0.8421
vn -0.1370 0.4899 0.8609
vn 0.0000 0.2516 0.9678
vn 0.1370 0.4899 0.8609
vn 0.4013 0.3603 0.8421
vn 0.3308 0.6167 0.7143
vn 0.5676 0.6228 0.5385
vn 0.0000 0.7565 0.6540
vn 0.6680 -0.4670 -0.5794
vn 0.6680 -0.6408 -0.3784
vn 0.3784 -0.1836 -0.9073
vn 0.5663 -0.3065 -0.7651
vn -0.1329 -0.1171 -0.9842
vn 0.1329 -0.1171 -0.9842
vn -0.5663 -0.3065 -0.7651
vn -0.3784 -0.1836 -0.9073
vn -0.6680 -0.6408 -0.3784
vn -0.6680 -0.4670 -0.5794
vn -0.3784 -0.9243 -0.0505
vn -0.5663 -0.8014 -0.1927
vn 0.1329 -0.9908 0.0264
vn -0.1329 -0.9908 0.0264
vn 0.5663 -0.8014 -0.1927
vn 0.3784 -0.9243 -0.0505
vn 0.6529 -0.5730 -0.4954
vn 0.4617 -0.2710 -0.8446
vn 0.0000 -0.1460 -0.9893
vn -0.4617 -0.2710 -0.8446
vn -0.6529 -0.5730 -0.4954
vn -0.4617 -0.8749 -0.1461
vn -0.0000 -1.0000 -0.0015
vn 0.4617 -0.8749 -0.1461
g dobj_dmesh_diamante
usemtl diamante
s off
f 1/1/1 65/2/1 97/3/1 17/4/1
f 1/1/2 17/4/2 128/5/2 96/6/2
f 2/7/3 67/8/3 99/9/3 18/10/3
f 2/7/4 18/10/4 98/11/4 66/12/4
f 3/13/5 69/14/5 101/15/5 19/16/5
f 3/17/6 19/18/6 100/19/6 68/20/6
f 4/21/7 71/22/7 103/23/7 20/24/7
f 4/21/8 20/24/8 102/25/8 70/26/8
f 5/27/9 73/28/9 105/29/9 21/30/9
f 5/27/10 21/30/10 104/31/10 72/32/10
f 6/33/11 75/34/11 107/35/11 22/36/11
f 6/33/12 22/36/12 106/37/12 74/38/12
f 7/39/13 77/40/13 109/41/13 23/42/13
f 7/43/14 23/44/14 108/45/14 76/46/14
f 8/47/15 79/48/15 111/49/15 24/50/15
f 8/47/16 24/50/16 110/51/16 78/52/16
f 9/53/17 81/54/17 113/55/17 25/56/17
f 9/53/18 25/56/18 112/57/18 80/58/18
f 10/59/19 83/60/19 115/61/19 26/62/19
f 10/59/20 26/62/20 114/63/20 82/64/20
f 11/65/21 85/66/21 117/67/21 27/68/21
f 11/65/22 27/68/22 116/69/22 84/70/22
f 12/71/23 87/72/23 119/73/23 28/74/23
f 12/71/24 28/74/24 118/75/24 86/76/24
f 13/77/25 89/78/25 121/79/25 29/80/25
f 13/77/26 29/80/26 120/81/26 88/82/26
f 14/83/27 91/84/27 123/85/27 30/86/27
f 14/83/28 30/86/28 122/87/28 90/88/28
f 15/89/29 93/90/29 125/91/29 31/92/29
f 15/89/30 31/92/30 124/93/30 92/94/30
f 16/95/31 95/96/31 127/97/31 32/98/31
f 16/95/32 32/98/32 126/99/32 94/100/32
f 33/101/33 49/102/33 97/3/33 65/2/33
f 33/101/34 66/12/34 98/11/34 49/102/34
f 34/103/35 50/104/35 99/9/35 67/8/35
f 34/103/36 68/20/36 100/19/36 50/104/36
f 35/105/37 51/106/37 101/15/37 69/14/37
f 35/105/38 70/26/38 102/25/38 51/106/38
f 36/107/39 52/108/39 103/23/39 71/22/39
f 36/107/40 72/32/40 104/31/40 52/108/40
f 37/109/41 53/110/41 105/29/41 73/28/41
f 37/109/42 74/38/42 106/37/42 53/110/42
f 38/111/43 54/112/43 107/35/43 75/34/43
f 38/111/44 76/46/44 108/45/44 54/112/44
f 39/113/45 55/114/45 109/41/45 77/40/45
f 39/113/46 78/52/46 110/51/46 55/114/46
f 40/115/47 56/116/47 111/49/47 79/48/47
f 40/115/48 80/58/48 112/57/48 56/116/48
f 41/117/49 57/118/49 113/55/49 81/54/49
f 41/117/50 82/64/50 114/63/50 57/118/50
f 42/119/51 58/120/51 115/61/51 83/60/51
f 42/119/52 84/70/52 116/69/52 58/120/52
f 43/121/53 59/122/53 117/67/53 85/66/53
f 43/121/54 86/123/54 118/124/54 59/122/54
f 44/125/55 60/126/55 119/73/55 87/72/55
f 44/125/56 88/82/56 120/81/56 60/126/56
f 45/127/57 61/128/57 121/79/57 89/78/57
f 45/127/58 90/88/58 122/87/58 61/128/58
f 46/129/59 62/130/59 123/85/59 91/84/59
f 46/131/60 92/94/60 124/93/60 62/132/60
f 47/133/61 63/134/61 125/91/61 93/90/61
f 47/133/62 94/100/62 126/99/62 63/134/62
f 48/135/63 64/136/63 127/97/63 95/96/63
f 48/135/64 96/6/64 128/5/64 64/136/64
f 17/137/65 136/138/65 32/139/65 127/140/65 64/141/65 128/142/65
f 31/143/66 125/144/66 63/145/66 126/146/66 32/139/66 136/138/66
f 18/147/67 99/148/67 50/149/67 100/150/67 19/151/67 129/152/67
f 18/147/68 129/152/68 17/137/68 97/153/68 49/154/68 98/155/68
f 20/156/69 103/157/69 52/158/69 104/159/69 21/160/69 130/161/69
f 20/156/70 130/161/70 19/151/70 101/162/70 51/163/70 102/164/70
f 22/165/71 107/166/71 54/167/71 108/168/71 23/169/71 131/170/71
f 22/165/72 131/170/72 21/160/72 105/171/72 53/172/72 106/173/72
f 24/174/73 111/175/73 56/176/73 112/177/73 25/178/73 132/179/73
f 24/174/74 132/179/74 23/169/74 109/180/74 55/181/74 110/182/74
f 26/183/75 115/184/75 58/185/75 116/186/75 27/187/75 133/188/75
f 26/183/76 133/188/76 25/178/76 113/189/76 57/190/76 114/191/76
f 28/192/77 119/193/77 60/194/77 120/195/77 29/196/77 134/197/77
f 28/192/78 134/197/78 27/187/78 117/198/78 59/199/78 118/200/78
f 30/201/79 123/202/79 62/203/79 124/204/79 31/143/79 135/205/79
f 30/201/80 135/205/80 29/196/80 121/206/80 61/207/80 122/208/80
f 137/209/81 129/152/81 138/210/81
f 138/210/82 129/152/82 19/151/82 130/161/82
f 138/210/83 130/161/83 139/211/83
f 139/211/84 130/161/84 21/160/84 131/170/84
f 139/211/85 131/170/85 140/212/85
f 140/212/86 131/170/86 23/169/86 132/179/86
f 140/212/87 132/179/87 141/213/87
f 141/213/88 132/179/88 25/178/88 133/188/88
f 141/213/89 133/188/89 142/214/89
f 142/214/90 133/188/90 27/187/90 134/197/90
f 142/214/91 134/197/91 143/215/91
f 143/215/92 134/197/92 29/196/92 135/205/92
f 143/215/93 135/205/93 144/216/93
f 144/216/94 135/205/94 31/143/94 136/138/94
f 144/216/95 136/138/95 137/209/95
f 17/137/96 129/152/96 137/209/96 136/138/96
f 137/209/97 138/210/97 139/211/97 140/212/97 141/213/97 142/214/97 143/215/97 144/216/97
f 1/1/98 145/217/98 2/7/98 66/12/98 33/101/98 65/2/98
f 1/1/99 96/6/99 48/135/99 95/96/99 16/95/99 152/218/99
f 3/13/100 146/219/100 4/21/100 70/26/100 35/105/100 69/14/100
f 3/17/101 68/20/101 34/103/101 67/8/101 2/7/101 145/217/101
f 5/27/102 147/220/102 6/33/102 74/38/102 37/109/102 73/28/102
f 5/27/103 72/32/103 36/107/103 71/22/103 4/21/103 146/219/103
f 7/39/104 148/221/104 8/47/104 78/52/104 39/113/104 77/40/104
f 7/43/105 76/46/105 38/111/105 75/34/105 6/33/105 147/220/105
f 9/53/106 149/222/106 10/59/106 82/64/106 41/117/106 81/54/106
f 9/53/107 80/58/107 40/115/107 79/48/107 8/47/107 148/221/107
f 11/223/108 150/224/108 12/71/108 86/76/108 43/225/108 85/226/108
f 11/223/109 84/227/109 42/228/109 83/229/109 10/230/109 149/231/109
f 13/77/110 151/232/110 14/83/110 90/88/110 45/127/110 89/78/110
f 13/77/111 88/82/111 44/125/111 87/72/111 12/71/111 150/224/111
f 15/233/112 152/234/112 16/235/112 94/236/112 47/237/112 93/238/112
f 15/233/113 92/239/113 46/129/113 91/84/113 14/83/113 151/232/113
f 1/1/114 152/218/114 153/240/114 145/217/114
f 3/17/115 145/217/115 153/240/115 146/241/115
f 5/27/116 146/219/116 153/242/116 147/220/116
f 7/43/117 147/220/117 153/242/117 148/243/117
f 9/53/118 148/221/118 153/244/118 149/222/118
f 11/223/119 149/231/119 153/245/119 150/224/119
f 13/77/120 150/224/120 153/245/120 151/232/120
f 15/233/121 151/232/121 153/245/121 152/234/121
