{
    "asset" : {
        "generator" : "Khronos glTF Blender I/O v1.4.40",
        "version" : "2.0"
    },
    "scene" : 0,
    "scenes" : [
        {
            "name" : "Scene",
            "nodes" : [
                2,
                3,
                4,
                5
            ]
        }
    ],
    "nodes" : [
        {
            "mesh" : 0,
            "name" : "node_id30",
            "rotation" : [
                0,
                0,
                0.2517146170139313,
                0.9678015112876892
            ],
            "scale" : [
                0.06394229829311371,
                0.06394229829311371,
                0.06394229829311371
            ],
            "translation" : [
                -0.0018316101050004363,
                0.4375097453594208,
                0.009242677129805088
            ]
        },
        {
            "mesh" : 1,
            "name" : "node_id30.001",
            "rotation" : [
                0,
                0,
                0.2517146170139313,
                0.9678015112876892
            ],
            "scale" : [
                0.06394229829311371,
                0.06394229829311371,
                0.06394229829311371
            ],
            "translation" : [
                -0.0018316101050004363,
                0.4375097453594208,
                0.009242677129805088
            ]
        },
        {
            "children" : [
                0,
                1
            ],
            "name" : "root"
        },
        {
            "name" : "Light",
            "rotation" : [
                0.16907575726509094,
                0.7558803558349609,
                -0.27217137813568115,
                0.570947527885437
            ],
            "translation" : [
                4.076245307922363,
                5.903861999511719,
                -1.0054539442062378
            ]
        },
        {
            "name" : "Camera",
            "rotation" : [
                0.483536034822464,
                0.33687159419059753,
                -0.20870360732078552,
                0.7804827094078064
            ],
            "translation" : [
                7.358891487121582,
                4.958309173583984,
                6.925790786743164
            ]
        },
        {
            "mesh" : 2,
            "name" : "Plane",
            "rotation" : [
                0,
                0.7467321753501892,
                0,
                0.6651248335838318
            ],
            "scale" : [
                -0.003947801887989044,
                -0.003947801887989044,
                -0.008585438132286072
            ],
            "translation" : [
                0.13567513227462769,
                0.02941036783158779,
                -0.11352036893367767
            ]
        }
    ],
    "animations" : [
        {
            "channels" : [
                {
                    "sampler" : 0,
                    "target" : {
                        "node" : 0,
                        "path" : "translation"
                    }
                },
                {
                    "sampler" : 1,
                    "target" : {
                        "node" : 0,
                        "path" : "rotation"
                    }
                },
                {
                    "sampler" : 2,
                    "target" : {
                        "node" : 0,
                        "path" : "scale"
                    }
                }
            ],
            "name" : "node_id30Action",
            "samplers" : [
                {
                    "input" : 12,
                    "interpolation" : "LINEAR",
                    "output" : 13
                },
                {
                    "input" : 12,
                    "interpolation" : "LINEAR",
                    "output" : 14
                },
                {
                    "input" : 12,
                    "interpolation" : "LINEAR",
                    "output" : 15
                }
            ]
        },
        {
            "channels" : [
                {
                    "sampler" : 0,
                    "target" : {
                        "node" : 1,
                        "path" : "translation"
                    }
                },
                {
                    "sampler" : 1,
                    "target" : {
                        "node" : 1,
                        "path" : "rotation"
                    }
                },
                {
                    "sampler" : 2,
                    "target" : {
                        "node" : 1,
                        "path" : "scale"
                    }
                }
            ],
            "name" : "node_id30Action.001",
            "samplers" : [
                {
                    "input" : 12,
                    "interpolation" : "LINEAR",
                    "output" : 16
                },
                {
                    "input" : 12,
                    "interpolation" : "LINEAR",
                    "output" : 17
                },
                {
                    "input" : 12,
                    "interpolation" : "LINEAR",
                    "output" : 18
                }
            ]
        },
        {
            "channels" : [
                {
                    "sampler" : 0,
                    "target" : {
                        "node" : 5,
                        "path" : "translation"
                    }
                },
                {
                    "sampler" : 1,
                    "target" : {
                        "node" : 5,
                        "path" : "rotation"
                    }
                },
                {
                    "sampler" : 2,
                    "target" : {
                        "node" : 5,
                        "path" : "scale"
                    }
                }
            ],
            "name" : "PlaneAction",
            "samplers" : [
                {
                    "input" : 19,
                    "interpolation" : "LINEAR",
                    "output" : 20
                },
                {
                    "input" : 19,
                    "interpolation" : "LINEAR",
                    "output" : 21
                },
                {
                    "input" : 19,
                    "interpolation" : "LINEAR",
                    "output" : 22
                }
            ]
        }
    ],
    "materials" : [
        {
            "alphaCutoff" : 0.5,
            "alphaMode" : "MASK",
            "doubleSided" : true,
            "name" : "49",
            "pbrMetallicRoughness" : {}
        }
    ],
    "meshes" : [
        {
            "name" : "mesh_id31",
            "primitives" : [
                {
                    "attributes" : {
                        "POSITION" : 0,
                        "NORMAL" : 1,
                        "TEXCOORD_0" : 2
                    },
                    "indices" : 3,
                    "material" : 0
                }
            ]
        },
        {
            "name" : "mesh_id31.001",
            "primitives" : [
                {
                    "attributes" : {
                        "POSITION" : 4,
                        "NORMAL" : 5,
                        "TEXCOORD_0" : 6
                    },
                    "indices" : 7,
                    "material" : 0
                }
            ]
        },
        {
            "name" : "Plane",
            "primitives" : [
                {
                    "attributes" : {
                        "POSITION" : 8,
                        "NORMAL" : 9,
                        "TEXCOORD_0" : 10
                    },
                    "indices" : 11
                }
            ]
        }
    ],
    "accessors" : [
        {
            "bufferView" : 0,
            "componentType" : 5126,
            "count" : 2376,
            "max" : [
                4.881559371948242,
                1.6789177656173706,
                4.868323802947998
            ],
            "min" : [
                -4.075076103210449,
                0,
                -4.64810037612915
            ],
            "type" : "VEC3"
        },
        {
            "bufferView" : 1,
            "componentType" : 5126,
            "count" : 2376,
            "type" : "VEC3"
        },
        {
            "bufferView" : 2,
            "componentType" : 5126,
            "count" : 2376,
            "type" : "VEC2"
        },
        {
            "bufferView" : 3,
            "componentType" : 5123,
            "count" : 12936,
            "type" : "SCALAR"
        },
        {
            "bufferView" : 4,
            "componentType" : 5126,
            "count" : 2170,
            "max" : [
                1.5207613706588745,
                1.7925056219100952,
                4.759001731872559
            ],
            "min" : [
                -4.881559371948242,
                0.01915096491575241,
                -4.868323802947998
            ],
            "type" : "VEC3"
        },
        {
            "bufferView" : 5,
            "componentType" : 5126,
            "count" : 2170,
            "type" : "VEC3"
        },
        {
            "bufferView" : 6,
            "componentType" : 5126,
            "count" : 2170,
            "type" : "VEC2"
        },
        {
            "bufferView" : 7,
            "componentType" : 5123,
            "count" : 11667,
            "type" : "SCALAR"
        },
        {
            "bufferView" : 8,
            "componentType" : 5126,
            "count" : 4,
            "max" : [
                1,
                0,
                1
            ],
            "min" : [
                -1,
                0,
                -1
            ],
            "type" : "VEC3"
        },
        {
            "bufferView" : 9,
            "componentType" : 5126,
            "count" : 4,
            "type" : "VEC3"
        },
        {
            "bufferView" : 10,
            "componentType" : 5126,
            "count" : 4,
            "type" : "VEC2"
        },
        {
            "bufferView" : 11,
            "componentType" : 5123,
            "count" : 6,
            "type" : "SCALAR"
        },
        {
            "bufferView" : 12,
            "componentType" : 5126,
            "count" : 160,
            "max" : [
                6.666666666666667
            ],
            "min" : [
                0.041666666666666664
            ],
            "type" : "SCALAR"
        },
        {
            "bufferView" : 13,
            "componentType" : 5126,
            "count" : 160,
            "type" : "VEC3"
        },
        {
            "bufferView" : 14,
            "componentType" : 5126,
            "count" : 160,
            "type" : "VEC4"
        },
        {
            "bufferView" : 15,
            "componentType" : 5126,
            "count" : 160,
            "type" : "VEC3"
        },
        {
            "bufferView" : 16,
            "componentType" : 5126,
            "count" : 160,
            "type" : "VEC3"
        },
        {
            "bufferView" : 17,
            "componentType" : 5126,
            "count" : 160,
            "type" : "VEC4"
        },
        {
            "bufferView" : 18,
            "componentType" : 5126,
            "count" : 160,
            "type" : "VEC3"
        },
        {
            "bufferView" : 19,
            "componentType" : 5126,
            "count" : 127,
            "max" : [
                5.291666666666667
            ],
            "min" : [
                0.041666666666666664
            ],
            "type" : "SCALAR"
        },
        {
            "bufferView" : 20,
            "componentType" : 5126,
            "count" : 127,
            "type" : "VEC3"
        },
        {
            "bufferView" : 21,
            "componentType" : 5126,
            "count" : 127,
            "type" : "VEC4"
        },
        {
            "bufferView" : 22,
            "componentType" : 5126,
            "count" : 127,
            "type" : "VEC3"
        }
    ],
    "bufferViews" : [
        {
            "buffer" : 0,
            "byteLength" : 28512,
            "byteOffset" : 0
        },
        {
            "buffer" : 0,
            "byteLength" : 28512,
            "byteOffset" : 28512
        },
        {
            "buffer" : 0,
            "byteLength" : 19008,
            "byteOffset" : 57024
        },
        {
            "buffer" : 0,
            "byteLength" : 25872,
            "byteOffset" : 76032
        },
        {
            "buffer" : 0,
            "byteLength" : 26040,
            "byteOffset" : 101904
        },
        {
            "buffer" : 0,
            "byteLength" : 26040,
            "byteOffset" : 127944
        },
        {
            "buffer" : 0,
            "byteLength" : 17360,
            "byteOffset" : 153984
        },
        {
            "buffer" : 0,
            "byteLength" : 23334,
            "byteOffset" : 171344
        },
        {
            "buffer" : 0,
            "byteLength" : 48,
            "byteOffset" : 194680
        },
        {
            "buffer" : 0,
            "byteLength" : 48,
            "byteOffset" : 194728
        },
        {
            "buffer" : 0,
            "byteLength" : 32,
            "byteOffset" : 194776
        },
        {
            "buffer" : 0,
            "byteLength" : 12,
            "byteOffset" : 194808
        },
        {
            "buffer" : 0,
            "byteLength" : 640,
            "byteOffset" : 194820
        },
        {
            "buffer" : 0,
            "byteLength" : 1920,
            "byteOffset" : 195460
        },
        {
            "buffer" : 0,
            "byteLength" : 2560,
            "byteOffset" : 197380
        },
        {
            "buffer" : 0,
            "byteLength" : 1920,
            "byteOffset" : 199940
        },
        {
            "buffer" : 0,
            "byteLength" : 1920,
            "byteOffset" : 201860
        },
        {
            "buffer" : 0,
            "byteLength" : 2560,
            "byteOffset" : 203780
        },
        {
            "buffer" : 0,
            "byteLength" : 1920,
            "byteOffset" : 206340
        },
        {
            "buffer" : 0,
            "byteLength" : 508,
            "byteOffset" : 208260
        },
        {
            "buffer" : 0,
            "byteLength" : 1524,
            "byteOffset" : 208768
        },
        {
            "buffer" : 0,
            "byteLength" : 2032,
            "byteOffset" : 210292
        },
        {
            "buffer" : 0,
            "byteLength" : 1524,
            "byteOffset" : 212324
        }
    ],
    "buffers" : [
        {
            "byteLength" : 213848,
            "uri" : "data:application/octet-stream;base64,"
        }
    ]
}
